<mxfile host="app.diagrams.net" modified="2024-06-14T04:01:39.872Z" agent="Mozilla/5.0 (Windows NT 10.0; Win64; x64) AppleWebKit/537.36 (KHTML, like Gecko) Chrome/125.0.0.0 Safari/537.36" etag="kEu_xWfUZDqQUaUT6Hr5" version="24.5.4" type="github">
  <diagram name="페이지-1" id="vZFIoYzJ82mCrVTAtwUB">
    <mxGraphModel dx="9394" dy="4829" grid="1" gridSize="10" guides="1" tooltips="1" connect="1" arrows="1" fold="1" page="1" pageScale="1" pageWidth="827" pageHeight="1169" math="0" shadow="0">
      <root>
        <mxCell id="0" />
        <mxCell id="1" parent="0" />
        <mxCell id="AsrjmCz6Vq9jhLu25TU5-5" style="edgeStyle=orthogonalEdgeStyle;rounded=0;orthogonalLoop=1;jettySize=auto;html=1;" edge="1" parent="1" source="AsrjmCz6Vq9jhLu25TU5-2" target="AsrjmCz6Vq9jhLu25TU5-4">
          <mxGeometry relative="1" as="geometry" />
        </mxCell>
        <mxCell id="AsrjmCz6Vq9jhLu25TU5-6" value="Game System" style="edgeLabel;html=1;align=center;verticalAlign=middle;resizable=0;points=[];" vertex="1" connectable="0" parent="AsrjmCz6Vq9jhLu25TU5-5">
          <mxGeometry x="-0.1667" y="-1" relative="1" as="geometry">
            <mxPoint as="offset" />
          </mxGeometry>
        </mxCell>
        <mxCell id="AsrjmCz6Vq9jhLu25TU5-2" value="Main Start" style="rounded=0;whiteSpace=wrap;html=1;" vertex="1" parent="1">
          <mxGeometry x="-1536.68" y="140" width="120" height="40" as="geometry" />
        </mxCell>
        <mxCell id="AsrjmCz6Vq9jhLu25TU5-34" style="edgeStyle=orthogonalEdgeStyle;rounded=0;orthogonalLoop=1;jettySize=auto;html=1;entryX=0.5;entryY=0;entryDx=0;entryDy=0;" edge="1" parent="1" source="AsrjmCz6Vq9jhLu25TU5-4" target="AsrjmCz6Vq9jhLu25TU5-32">
          <mxGeometry relative="1" as="geometry" />
        </mxCell>
        <mxCell id="AsrjmCz6Vq9jhLu25TU5-35" style="edgeStyle=orthogonalEdgeStyle;rounded=0;orthogonalLoop=1;jettySize=auto;html=1;entryX=0.5;entryY=0;entryDx=0;entryDy=0;" edge="1" parent="1" source="AsrjmCz6Vq9jhLu25TU5-4" target="AsrjmCz6Vq9jhLu25TU5-33">
          <mxGeometry relative="1" as="geometry" />
        </mxCell>
        <mxCell id="AsrjmCz6Vq9jhLu25TU5-4" value="Is Local Mode" style="html=1;whiteSpace=wrap;aspect=fixed;shape=isoRectangle;" vertex="1" parent="1">
          <mxGeometry x="-1543.34" y="260" width="133.33" height="80" as="geometry" />
        </mxCell>
        <mxCell id="AsrjmCz6Vq9jhLu25TU5-11" style="edgeStyle=orthogonalEdgeStyle;rounded=0;orthogonalLoop=1;jettySize=auto;html=1;" edge="1" parent="1" source="AsrjmCz6Vq9jhLu25TU5-7" target="AsrjmCz6Vq9jhLu25TU5-10">
          <mxGeometry relative="1" as="geometry" />
        </mxCell>
        <mxCell id="AsrjmCz6Vq9jhLu25TU5-7" value="Resource Version Check&lt;div&gt;- Resource_Version_Patch -&lt;/div&gt;" style="rounded=0;whiteSpace=wrap;html=1;" vertex="1" parent="1">
          <mxGeometry x="-1565.01" y="-120" width="176.67" height="40" as="geometry" />
        </mxCell>
        <mxCell id="AsrjmCz6Vq9jhLu25TU5-8" value="Device On" style="rounded=1;whiteSpace=wrap;html=1;" vertex="1" parent="1">
          <mxGeometry x="-1430" y="-510" width="120" height="40" as="geometry" />
        </mxCell>
        <mxCell id="AsrjmCz6Vq9jhLu25TU5-13" style="edgeStyle=orthogonalEdgeStyle;rounded=0;orthogonalLoop=1;jettySize=auto;html=1;" edge="1" parent="1" source="AsrjmCz6Vq9jhLu25TU5-10" target="AsrjmCz6Vq9jhLu25TU5-12">
          <mxGeometry relative="1" as="geometry" />
        </mxCell>
        <mxCell id="AsrjmCz6Vq9jhLu25TU5-44" value="No" style="edgeLabel;html=1;align=center;verticalAlign=middle;resizable=0;points=[];" vertex="1" connectable="0" parent="AsrjmCz6Vq9jhLu25TU5-13">
          <mxGeometry x="0.4504" y="1" relative="1" as="geometry">
            <mxPoint as="offset" />
          </mxGeometry>
        </mxCell>
        <mxCell id="AsrjmCz6Vq9jhLu25TU5-42" style="edgeStyle=orthogonalEdgeStyle;rounded=0;orthogonalLoop=1;jettySize=auto;html=1;" edge="1" parent="1" source="AsrjmCz6Vq9jhLu25TU5-10" target="AsrjmCz6Vq9jhLu25TU5-2">
          <mxGeometry relative="1" as="geometry" />
        </mxCell>
        <mxCell id="AsrjmCz6Vq9jhLu25TU5-43" value="Yes" style="edgeLabel;html=1;align=center;verticalAlign=middle;resizable=0;points=[];" vertex="1" connectable="0" parent="AsrjmCz6Vq9jhLu25TU5-42">
          <mxGeometry x="-0.0889" y="-2" relative="1" as="geometry">
            <mxPoint as="offset" />
          </mxGeometry>
        </mxCell>
        <mxCell id="AsrjmCz6Vq9jhLu25TU5-10" value="The Last Version" style="html=1;whiteSpace=wrap;aspect=fixed;shape=isoRectangle;" vertex="1" parent="1">
          <mxGeometry x="-1543.34" y="-30" width="133.33" height="80" as="geometry" />
        </mxCell>
        <mxCell id="AsrjmCz6Vq9jhLu25TU5-15" style="edgeStyle=orthogonalEdgeStyle;rounded=0;orthogonalLoop=1;jettySize=auto;html=1;" edge="1" parent="1" source="AsrjmCz6Vq9jhLu25TU5-12" target="AsrjmCz6Vq9jhLu25TU5-14">
          <mxGeometry relative="1" as="geometry" />
        </mxCell>
        <mxCell id="AsrjmCz6Vq9jhLu25TU5-12" value="Resources_Download" style="rounded=0;whiteSpace=wrap;html=1;" vertex="1" parent="1">
          <mxGeometry x="-1165" y="-10" width="176.67" height="40" as="geometry" />
        </mxCell>
        <mxCell id="AsrjmCz6Vq9jhLu25TU5-16" style="edgeStyle=orthogonalEdgeStyle;rounded=0;orthogonalLoop=1;jettySize=auto;html=1;entryX=0.5;entryY=0;entryDx=0;entryDy=0;" edge="1" parent="1" source="AsrjmCz6Vq9jhLu25TU5-14" target="AsrjmCz6Vq9jhLu25TU5-7">
          <mxGeometry relative="1" as="geometry" />
        </mxCell>
        <mxCell id="AsrjmCz6Vq9jhLu25TU5-17" value="Yes" style="edgeLabel;html=1;align=center;verticalAlign=middle;resizable=0;points=[];" vertex="1" connectable="0" parent="AsrjmCz6Vq9jhLu25TU5-16">
          <mxGeometry x="-0.6954" y="2" relative="1" as="geometry">
            <mxPoint x="-35" y="-2" as="offset" />
          </mxGeometry>
        </mxCell>
        <mxCell id="AsrjmCz6Vq9jhLu25TU5-40" style="edgeStyle=orthogonalEdgeStyle;rounded=0;orthogonalLoop=1;jettySize=auto;html=1;" edge="1" parent="1" source="AsrjmCz6Vq9jhLu25TU5-14" target="AsrjmCz6Vq9jhLu25TU5-22">
          <mxGeometry relative="1" as="geometry">
            <Array as="points">
              <mxPoint x="-1077" y="-260" />
            </Array>
          </mxGeometry>
        </mxCell>
        <mxCell id="AsrjmCz6Vq9jhLu25TU5-41" value="No" style="edgeLabel;html=1;align=center;verticalAlign=middle;resizable=0;points=[];" vertex="1" connectable="0" parent="AsrjmCz6Vq9jhLu25TU5-40">
          <mxGeometry x="-0.2028" y="-1" relative="1" as="geometry">
            <mxPoint x="-49" y="1" as="offset" />
          </mxGeometry>
        </mxCell>
        <mxCell id="AsrjmCz6Vq9jhLu25TU5-14" value="IsComplete" style="html=1;whiteSpace=wrap;aspect=fixed;shape=isoRectangle;" vertex="1" parent="1">
          <mxGeometry x="-1143.33" y="-230" width="133.33" height="80" as="geometry" />
        </mxCell>
        <mxCell id="AsrjmCz6Vq9jhLu25TU5-26" style="edgeStyle=orthogonalEdgeStyle;rounded=0;orthogonalLoop=1;jettySize=auto;html=1;" edge="1" parent="1" source="AsrjmCz6Vq9jhLu25TU5-22" target="AsrjmCz6Vq9jhLu25TU5-25">
          <mxGeometry relative="1" as="geometry" />
        </mxCell>
        <mxCell id="AsrjmCz6Vq9jhLu25TU5-45" value="No : DisConnect Server" style="edgeLabel;html=1;align=center;verticalAlign=middle;resizable=0;points=[];" vertex="1" connectable="0" parent="AsrjmCz6Vq9jhLu25TU5-26">
          <mxGeometry x="-0.2808" y="-2" relative="1" as="geometry">
            <mxPoint as="offset" />
          </mxGeometry>
        </mxCell>
        <mxCell id="AsrjmCz6Vq9jhLu25TU5-27" style="edgeStyle=orthogonalEdgeStyle;rounded=0;orthogonalLoop=1;jettySize=auto;html=1;" edge="1" parent="1" source="AsrjmCz6Vq9jhLu25TU5-22" target="AsrjmCz6Vq9jhLu25TU5-7">
          <mxGeometry relative="1" as="geometry" />
        </mxCell>
        <mxCell id="AsrjmCz6Vq9jhLu25TU5-28" value="Yes" style="edgeLabel;html=1;align=center;verticalAlign=middle;resizable=0;points=[];" vertex="1" connectable="0" parent="AsrjmCz6Vq9jhLu25TU5-27">
          <mxGeometry x="-0.6056" y="2" relative="1" as="geometry">
            <mxPoint x="-2" y="40" as="offset" />
          </mxGeometry>
        </mxCell>
        <mxCell id="AsrjmCz6Vq9jhLu25TU5-22" value="IsResource&lt;div&gt;ServerConnect&lt;/div&gt;" style="html=1;whiteSpace=wrap;aspect=fixed;shape=isoRectangle;" vertex="1" parent="1">
          <mxGeometry x="-1543.34" y="-300" width="133.33" height="80" as="geometry" />
        </mxCell>
        <mxCell id="AsrjmCz6Vq9jhLu25TU5-23" style="edgeStyle=orthogonalEdgeStyle;rounded=0;orthogonalLoop=1;jettySize=auto;html=1;entryX=0.524;entryY=0.07;entryDx=0;entryDy=0;entryPerimeter=0;" edge="1" parent="1" source="AsrjmCz6Vq9jhLu25TU5-8" target="AsrjmCz6Vq9jhLu25TU5-22">
          <mxGeometry relative="1" as="geometry" />
        </mxCell>
        <mxCell id="AsrjmCz6Vq9jhLu25TU5-36" style="edgeStyle=orthogonalEdgeStyle;rounded=0;orthogonalLoop=1;jettySize=auto;html=1;entryX=0.5;entryY=0;entryDx=0;entryDy=0;" edge="1" parent="1" source="AsrjmCz6Vq9jhLu25TU5-25" target="AsrjmCz6Vq9jhLu25TU5-32">
          <mxGeometry relative="1" as="geometry" />
        </mxCell>
        <mxCell id="AsrjmCz6Vq9jhLu25TU5-25" value="Error DisConnect Reason" style="html=1;whiteSpace=wrap;aspect=fixed;shape=isoRectangle;" vertex="1" parent="1">
          <mxGeometry x="-1880" y="-300" width="133.33" height="80" as="geometry" />
        </mxCell>
        <mxCell id="AsrjmCz6Vq9jhLu25TU5-68" style="edgeStyle=orthogonalEdgeStyle;rounded=0;orthogonalLoop=1;jettySize=auto;html=1;" edge="1" parent="1" source="AsrjmCz6Vq9jhLu25TU5-32" target="AsrjmCz6Vq9jhLu25TU5-67">
          <mxGeometry relative="1" as="geometry" />
        </mxCell>
        <mxCell id="AsrjmCz6Vq9jhLu25TU5-32" value="Game Start - Local" style="rounded=0;whiteSpace=wrap;html=1;" vertex="1" parent="1">
          <mxGeometry x="-1873.3400000000001" y="390" width="120" height="40" as="geometry" />
        </mxCell>
        <mxCell id="AsrjmCz6Vq9jhLu25TU5-90" style="edgeStyle=orthogonalEdgeStyle;rounded=0;orthogonalLoop=1;jettySize=auto;html=1;entryX=0.5;entryY=0;entryDx=0;entryDy=0;" edge="1" parent="1" source="AsrjmCz6Vq9jhLu25TU5-33" target="AsrjmCz6Vq9jhLu25TU5-89">
          <mxGeometry relative="1" as="geometry" />
        </mxCell>
        <mxCell id="AsrjmCz6Vq9jhLu25TU5-33" value="Game Start - Network" style="rounded=0;whiteSpace=wrap;html=1;" vertex="1" parent="1">
          <mxGeometry x="-1160" y="400" width="140" height="40" as="geometry" />
        </mxCell>
        <mxCell id="AsrjmCz6Vq9jhLu25TU5-46" value="개발 개요" style="rounded=0;whiteSpace=wrap;html=1;" vertex="1" parent="1">
          <mxGeometry x="-2410" y="-970" width="176.67" height="40" as="geometry" />
        </mxCell>
        <mxCell id="AsrjmCz6Vq9jhLu25TU5-120" style="edgeStyle=orthogonalEdgeStyle;rounded=0;orthogonalLoop=1;jettySize=auto;html=1;" edge="1" parent="1" source="AsrjmCz6Vq9jhLu25TU5-67" target="AsrjmCz6Vq9jhLu25TU5-119">
          <mxGeometry relative="1" as="geometry" />
        </mxCell>
        <mxCell id="AsrjmCz6Vq9jhLu25TU5-121" value="None" style="edgeLabel;html=1;align=center;verticalAlign=middle;resizable=0;points=[];fontSize=17;" vertex="1" connectable="0" parent="AsrjmCz6Vq9jhLu25TU5-120">
          <mxGeometry x="-0.8547" y="2" relative="1" as="geometry">
            <mxPoint x="-60" y="-2" as="offset" />
          </mxGeometry>
        </mxCell>
        <mxCell id="AsrjmCz6Vq9jhLu25TU5-124" style="edgeStyle=orthogonalEdgeStyle;rounded=0;orthogonalLoop=1;jettySize=auto;html=1;" edge="1" parent="1" source="AsrjmCz6Vq9jhLu25TU5-67" target="AsrjmCz6Vq9jhLu25TU5-123">
          <mxGeometry relative="1" as="geometry" />
        </mxCell>
        <mxCell id="AsrjmCz6Vq9jhLu25TU5-67" value="Is Map Exist" style="html=1;whiteSpace=wrap;aspect=fixed;shape=isoRectangle;" vertex="1" parent="1">
          <mxGeometry x="-1880" y="480" width="133.33" height="80" as="geometry" />
        </mxCell>
        <mxCell id="AsrjmCz6Vq9jhLu25TU5-92" style="edgeStyle=orthogonalEdgeStyle;rounded=0;orthogonalLoop=1;jettySize=auto;html=1;entryX=0.5;entryY=0;entryDx=0;entryDy=0;" edge="1" parent="1" source="AsrjmCz6Vq9jhLu25TU5-89" target="AsrjmCz6Vq9jhLu25TU5-111">
          <mxGeometry relative="1" as="geometry">
            <mxPoint x="-1090.0344827586205" y="590" as="targetPoint" />
          </mxGeometry>
        </mxCell>
        <mxCell id="AsrjmCz6Vq9jhLu25TU5-103" style="edgeStyle=orthogonalEdgeStyle;rounded=0;orthogonalLoop=1;jettySize=auto;html=1;entryX=0.5;entryY=0;entryDx=0;entryDy=0;" edge="1" parent="1" source="AsrjmCz6Vq9jhLu25TU5-89" target="AsrjmCz6Vq9jhLu25TU5-110">
          <mxGeometry relative="1" as="geometry">
            <mxPoint x="-933.3448275862065" y="590" as="targetPoint" />
          </mxGeometry>
        </mxCell>
        <mxCell id="AsrjmCz6Vq9jhLu25TU5-89" value="LobbyFind" style="whiteSpace=wrap;html=1;" vertex="1" parent="1">
          <mxGeometry x="-1160" y="500" width="140" height="40" as="geometry" />
        </mxCell>
        <mxCell id="AsrjmCz6Vq9jhLu25TU5-132" style="edgeStyle=orthogonalEdgeStyle;rounded=0;orthogonalLoop=1;jettySize=auto;html=1;entryX=0;entryY=0.5;entryDx=0;entryDy=0;" edge="1" parent="1" source="AsrjmCz6Vq9jhLu25TU5-106" target="AsrjmCz6Vq9jhLu25TU5-89">
          <mxGeometry relative="1" as="geometry">
            <Array as="points">
              <mxPoint x="-1230" y="720" />
              <mxPoint x="-1230" y="520" />
            </Array>
          </mxGeometry>
        </mxCell>
        <mxCell id="AsrjmCz6Vq9jhLu25TU5-133" value="Fail" style="edgeLabel;html=1;align=center;verticalAlign=middle;resizable=0;points=[];" vertex="1" connectable="0" parent="AsrjmCz6Vq9jhLu25TU5-132">
          <mxGeometry x="-0.0075" relative="1" as="geometry">
            <mxPoint as="offset" />
          </mxGeometry>
        </mxCell>
        <mxCell id="AsrjmCz6Vq9jhLu25TU5-134" style="edgeStyle=orthogonalEdgeStyle;rounded=0;orthogonalLoop=1;jettySize=auto;html=1;" edge="1" parent="1" source="AsrjmCz6Vq9jhLu25TU5-106" target="AsrjmCz6Vq9jhLu25TU5-125">
          <mxGeometry relative="1" as="geometry" />
        </mxCell>
        <mxCell id="AsrjmCz6Vq9jhLu25TU5-135" value="Success" style="edgeLabel;html=1;align=center;verticalAlign=middle;resizable=0;points=[];" vertex="1" connectable="0" parent="AsrjmCz6Vq9jhLu25TU5-134">
          <mxGeometry x="-0.3502" y="-2" relative="1" as="geometry">
            <mxPoint as="offset" />
          </mxGeometry>
        </mxCell>
        <mxCell id="AsrjmCz6Vq9jhLu25TU5-106" value="Result" style="html=1;whiteSpace=wrap;aspect=fixed;shape=isoRectangle;" vertex="1" parent="1">
          <mxGeometry x="-1156.66" y="680" width="133.33" height="80" as="geometry" />
        </mxCell>
        <mxCell id="AsrjmCz6Vq9jhLu25TU5-113" style="edgeStyle=orthogonalEdgeStyle;rounded=0;orthogonalLoop=1;jettySize=auto;html=1;entryX=1.005;entryY=0.511;entryDx=0;entryDy=0;entryPerimeter=0;" edge="1" parent="1" source="AsrjmCz6Vq9jhLu25TU5-110" target="AsrjmCz6Vq9jhLu25TU5-106">
          <mxGeometry relative="1" as="geometry">
            <mxPoint x="-890.0344827586209" y="680" as="targetPoint" />
            <Array as="points">
              <mxPoint x="-890" y="720" />
              <mxPoint x="-992" y="720" />
            </Array>
          </mxGeometry>
        </mxCell>
        <mxCell id="AsrjmCz6Vq9jhLu25TU5-110" value="Join" style="whiteSpace=wrap;html=1;" vertex="1" parent="1">
          <mxGeometry x="-960" y="591" width="140" height="40" as="geometry" />
        </mxCell>
        <mxCell id="AsrjmCz6Vq9jhLu25TU5-114" style="edgeStyle=orthogonalEdgeStyle;rounded=0;orthogonalLoop=1;jettySize=auto;html=1;" edge="1" parent="1" source="AsrjmCz6Vq9jhLu25TU5-111" target="AsrjmCz6Vq9jhLu25TU5-106">
          <mxGeometry relative="1" as="geometry" />
        </mxCell>
        <mxCell id="AsrjmCz6Vq9jhLu25TU5-111" value="Create" style="whiteSpace=wrap;html=1;" vertex="1" parent="1">
          <mxGeometry x="-1160" y="592" width="140" height="40" as="geometry" />
        </mxCell>
        <mxCell id="AsrjmCz6Vq9jhLu25TU5-119" value="Main Off" style="rounded=1;whiteSpace=wrap;html=1;" vertex="1" parent="1">
          <mxGeometry x="-2200" y="190" width="120" height="40" as="geometry" />
        </mxCell>
        <mxCell id="AsrjmCz6Vq9jhLu25TU5-141" style="edgeStyle=orthogonalEdgeStyle;rounded=0;orthogonalLoop=1;jettySize=auto;html=1;entryX=0;entryY=0.5;entryDx=0;entryDy=0;" edge="1" parent="1" source="AsrjmCz6Vq9jhLu25TU5-123" target="AsrjmCz6Vq9jhLu25TU5-140">
          <mxGeometry relative="1" as="geometry" />
        </mxCell>
        <mxCell id="AsrjmCz6Vq9jhLu25TU5-123" value="Limited Mode" style="rounded=0;whiteSpace=wrap;html=1;" vertex="1" parent="1">
          <mxGeometry x="-1670.0000000000002" y="780" width="120" height="40" as="geometry" />
        </mxCell>
        <mxCell id="AsrjmCz6Vq9jhLu25TU5-137" style="edgeStyle=orthogonalEdgeStyle;rounded=0;orthogonalLoop=1;jettySize=auto;html=1;entryX=1;entryY=0.5;entryDx=0;entryDy=0;" edge="1" parent="1" source="AsrjmCz6Vq9jhLu25TU5-125" target="AsrjmCz6Vq9jhLu25TU5-140">
          <mxGeometry relative="1" as="geometry">
            <mxPoint x="-1250" y="930" as="targetPoint" />
          </mxGeometry>
        </mxCell>
        <mxCell id="AsrjmCz6Vq9jhLu25TU5-125" value="Lobby" style="whiteSpace=wrap;html=1;" vertex="1" parent="1">
          <mxGeometry x="-1160" y="820" width="140" height="40" as="geometry" />
        </mxCell>
        <mxCell id="AsrjmCz6Vq9jhLu25TU5-143" style="edgeStyle=orthogonalEdgeStyle;rounded=0;orthogonalLoop=1;jettySize=auto;html=1;" edge="1" parent="1" source="AsrjmCz6Vq9jhLu25TU5-140" target="AsrjmCz6Vq9jhLu25TU5-142">
          <mxGeometry relative="1" as="geometry" />
        </mxCell>
        <mxCell id="AsrjmCz6Vq9jhLu25TU5-140" value="Game Setting" style="whiteSpace=wrap;html=1;" vertex="1" parent="1">
          <mxGeometry x="-1400" y="910" width="120" height="60" as="geometry" />
        </mxCell>
        <mxCell id="AsrjmCz6Vq9jhLu25TU5-149" style="edgeStyle=orthogonalEdgeStyle;rounded=0;orthogonalLoop=1;jettySize=auto;html=1;" edge="1" parent="1" source="AsrjmCz6Vq9jhLu25TU5-142" target="AsrjmCz6Vq9jhLu25TU5-147">
          <mxGeometry relative="1" as="geometry" />
        </mxCell>
        <mxCell id="AsrjmCz6Vq9jhLu25TU5-142" value="Game Start" style="whiteSpace=wrap;html=1;" vertex="1" parent="1">
          <mxGeometry x="-1400" y="1010" width="120" height="60" as="geometry" />
        </mxCell>
        <mxCell id="AsrjmCz6Vq9jhLu25TU5-151" style="edgeStyle=orthogonalEdgeStyle;rounded=0;orthogonalLoop=1;jettySize=auto;html=1;" edge="1" parent="1" source="AsrjmCz6Vq9jhLu25TU5-147" target="AsrjmCz6Vq9jhLu25TU5-150">
          <mxGeometry relative="1" as="geometry" />
        </mxCell>
        <mxCell id="AsrjmCz6Vq9jhLu25TU5-152" value="Yes" style="edgeLabel;html=1;align=center;verticalAlign=middle;resizable=0;points=[];" vertex="1" connectable="0" parent="AsrjmCz6Vq9jhLu25TU5-151">
          <mxGeometry x="-0.3149" y="2" relative="1" as="geometry">
            <mxPoint as="offset" />
          </mxGeometry>
        </mxCell>
        <mxCell id="AsrjmCz6Vq9jhLu25TU5-154" style="edgeStyle=orthogonalEdgeStyle;rounded=0;orthogonalLoop=1;jettySize=auto;html=1;" edge="1" parent="1" source="AsrjmCz6Vq9jhLu25TU5-147" target="AsrjmCz6Vq9jhLu25TU5-153">
          <mxGeometry relative="1" as="geometry" />
        </mxCell>
        <mxCell id="AsrjmCz6Vq9jhLu25TU5-155" value="No" style="edgeLabel;html=1;align=center;verticalAlign=middle;resizable=0;points=[];" vertex="1" connectable="0" parent="AsrjmCz6Vq9jhLu25TU5-154">
          <mxGeometry x="-0.2545" y="-3" relative="1" as="geometry">
            <mxPoint as="offset" />
          </mxGeometry>
        </mxCell>
        <mxCell id="AsrjmCz6Vq9jhLu25TU5-147" value="Resource Loading" style="rhombus;whiteSpace=wrap;html=1;" vertex="1" parent="1">
          <mxGeometry x="-1380" y="1130" width="80" height="80" as="geometry" />
        </mxCell>
        <mxCell id="AsrjmCz6Vq9jhLu25TU5-160" style="edgeStyle=orthogonalEdgeStyle;rounded=0;orthogonalLoop=1;jettySize=auto;html=1;" edge="1" parent="1" source="AsrjmCz6Vq9jhLu25TU5-150" target="AsrjmCz6Vq9jhLu25TU5-158">
          <mxGeometry relative="1" as="geometry">
            <Array as="points">
              <mxPoint x="-1340" y="1350" />
              <mxPoint x="-1520" y="1350" />
            </Array>
          </mxGeometry>
        </mxCell>
        <mxCell id="AsrjmCz6Vq9jhLu25TU5-161" style="edgeStyle=orthogonalEdgeStyle;rounded=0;orthogonalLoop=1;jettySize=auto;html=1;" edge="1" parent="1" source="AsrjmCz6Vq9jhLu25TU5-150" target="AsrjmCz6Vq9jhLu25TU5-159">
          <mxGeometry relative="1" as="geometry" />
        </mxCell>
        <mxCell id="AsrjmCz6Vq9jhLu25TU5-163" style="edgeStyle=orthogonalEdgeStyle;rounded=0;orthogonalLoop=1;jettySize=auto;html=1;" edge="1" parent="1" source="AsrjmCz6Vq9jhLu25TU5-150" target="AsrjmCz6Vq9jhLu25TU5-162">
          <mxGeometry relative="1" as="geometry" />
        </mxCell>
        <mxCell id="AsrjmCz6Vq9jhLu25TU5-165" style="edgeStyle=orthogonalEdgeStyle;rounded=0;orthogonalLoop=1;jettySize=auto;html=1;" edge="1" parent="1" source="AsrjmCz6Vq9jhLu25TU5-150" target="AsrjmCz6Vq9jhLu25TU5-164">
          <mxGeometry relative="1" as="geometry" />
        </mxCell>
        <mxCell id="AsrjmCz6Vq9jhLu25TU5-167" style="edgeStyle=orthogonalEdgeStyle;rounded=0;orthogonalLoop=1;jettySize=auto;html=1;" edge="1" parent="1" source="AsrjmCz6Vq9jhLu25TU5-150" target="AsrjmCz6Vq9jhLu25TU5-166">
          <mxGeometry relative="1" as="geometry" />
        </mxCell>
        <mxCell id="AsrjmCz6Vq9jhLu25TU5-171" style="edgeStyle=orthogonalEdgeStyle;rounded=0;orthogonalLoop=1;jettySize=auto;html=1;" edge="1" parent="1" source="AsrjmCz6Vq9jhLu25TU5-150" target="AsrjmCz6Vq9jhLu25TU5-170">
          <mxGeometry relative="1" as="geometry" />
        </mxCell>
        <mxCell id="AsrjmCz6Vq9jhLu25TU5-150" value="Game Init" style="whiteSpace=wrap;html=1;" vertex="1" parent="1">
          <mxGeometry x="-1400" y="1270" width="120" height="60" as="geometry" />
        </mxCell>
        <mxCell id="AsrjmCz6Vq9jhLu25TU5-156" style="edgeStyle=orthogonalEdgeStyle;rounded=0;orthogonalLoop=1;jettySize=auto;html=1;" edge="1" parent="1" source="AsrjmCz6Vq9jhLu25TU5-153" target="AsrjmCz6Vq9jhLu25TU5-125">
          <mxGeometry relative="1" as="geometry" />
        </mxCell>
        <mxCell id="AsrjmCz6Vq9jhLu25TU5-157" value="Resource Load Fail Callback" style="edgeLabel;html=1;align=center;verticalAlign=middle;resizable=0;points=[];" vertex="1" connectable="0" parent="AsrjmCz6Vq9jhLu25TU5-156">
          <mxGeometry x="0.2498" relative="1" as="geometry">
            <mxPoint as="offset" />
          </mxGeometry>
        </mxCell>
        <mxCell id="AsrjmCz6Vq9jhLu25TU5-153" value="Resource Load Fail" style="whiteSpace=wrap;html=1;" vertex="1" parent="1">
          <mxGeometry x="-1150" y="1140" width="120" height="60" as="geometry" />
        </mxCell>
        <mxCell id="AsrjmCz6Vq9jhLu25TU5-169" style="edgeStyle=orthogonalEdgeStyle;rounded=0;orthogonalLoop=1;jettySize=auto;html=1;" edge="1" parent="1" source="AsrjmCz6Vq9jhLu25TU5-158" target="AsrjmCz6Vq9jhLu25TU5-168">
          <mxGeometry relative="1" as="geometry" />
        </mxCell>
        <mxCell id="AsrjmCz6Vq9jhLu25TU5-158" value="Player Spawn" style="whiteSpace=wrap;html=1;" vertex="1" parent="1">
          <mxGeometry x="-1580" y="1390" width="120" height="60" as="geometry" />
        </mxCell>
        <mxCell id="AsrjmCz6Vq9jhLu25TU5-159" value="Map Spawn" style="whiteSpace=wrap;html=1;" vertex="1" parent="1">
          <mxGeometry x="-1440" y="1390" width="120" height="60" as="geometry" />
        </mxCell>
        <mxCell id="AsrjmCz6Vq9jhLu25TU5-162" value="Data Init" style="whiteSpace=wrap;html=1;" vertex="1" parent="1">
          <mxGeometry x="-1300" y="1390" width="120" height="60" as="geometry" />
        </mxCell>
        <mxCell id="AsrjmCz6Vq9jhLu25TU5-164" value="Round System Install" style="whiteSpace=wrap;html=1;" vertex="1" parent="1">
          <mxGeometry x="-1156.66" y="1390" width="120" height="60" as="geometry" />
        </mxCell>
        <mxCell id="AsrjmCz6Vq9jhLu25TU5-166" value="Command System Install" style="whiteSpace=wrap;html=1;" vertex="1" parent="1">
          <mxGeometry x="-1010.0000000000001" y="1390" width="120" height="60" as="geometry" />
        </mxCell>
        <mxCell id="AsrjmCz6Vq9jhLu25TU5-168" value="Hp &amp;lt;= 0" style="rhombus;whiteSpace=wrap;html=1;" vertex="1" parent="1">
          <mxGeometry x="-1560" y="1470" width="80" height="80" as="geometry" />
        </mxCell>
        <mxCell id="AsrjmCz6Vq9jhLu25TU5-170" value="Castle Spawn" style="whiteSpace=wrap;html=1;" vertex="1" parent="1">
          <mxGeometry x="-1730" y="1390" width="120" height="60" as="geometry" />
        </mxCell>
      </root>
    </mxGraphModel>
  </diagram>
</mxfile>
